<svg xmlns="http://www.w3.org/2000/svg" width="825.841" height="330.226" viewBox="0 0 825.841 330.226"><g transform="translate(-60 -61)"><g transform="translate(60 61)"><path d="M485.993,58.457c-91.515,5.027-8.224,152.563-94.191,150.092-10.249-.294-14.124,14.35-5.227,19.3,37.749,20.986,36.508,43.013,37.233,79.526.342,17.3,4.317,34.231,13.861,48.876,18.583,28.505,51.426,38.632,83.107,28.7,12.678-3.97,7.267-23.972-5.505-19.971-36.976,11.584-67.558-15.275-70.745-52.5-1.456-16.989,3.081-33.779-.247-50.742-5.079-25.913-25.5-39.684-47.25-51.778q-2.611,9.646-5.227,19.3c24.267.7,46.593-9.123,58.277-31.355,16.059-30.572-11.495-116.134,35.914-118.737,13.256-.726,13.34-21.443,0-20.712Z" transform="translate(-381.613 -58.438)" fill="#FFFFFF"/></g><g transform="translate(739.458 61)"><path d="M552.836,79.17c46.835,2.571,19.9,87.981,35.914,118.737,11.542,22.174,34.168,32.049,58.272,31.355q-2.61-9.654-5.226-19.3c-21.738,12.083-42.161,25.876-47.246,51.778-2.986,15.2.289,30.361-.242,45.631-1.336,38.28-29.988,70.382-70.75,57.61-12.751-4-18.2,16-5.51,19.971,31.876,9.985,64.251-.379,83.107-28.7,8.614-12.935,12.831-28.384,13.861-43.764.689-10.264-1.856-20.612-1.13-30.787,2.025-28.284,15.38-41.072,38.37-53.85,8.886-4.943,5.032-19.6-5.232-19.3C561.706,211,644.1,63.468,552.836,58.457c-13.319-.731-13.277,19.987,0,20.712Z" transform="translate(-510.83 -58.438)" fill="#FFFFFF"/></g><g transform="translate(181.837 105.088)"><g transform="translate(0 0)"><path d="M454.206,184.862H434.54q-14.244,0-21.995-7.577t-7.761-21.827V98.28q0-14.245,7.761-21.822,7.746-7.58,21.995-7.577h19.666q14.064,0,21.917,7.667t7.84,21.732v8.482q0,3.967-3.964,3.965H464.849c-2.529,0-3.786-1.32-3.786-3.965v-7.4q0-5.774-2.435-8.2-2.436-2.445-8.208-2.44H438.147c-3.728,0-6.394.81-8.018,2.44s-2.435,4.354-2.435,8.2v55.012q0,5.781,2.435,8.208c1.625,1.625,4.29,2.44,8.018,2.44h12.273q5.766,0,8.208-2.44t2.435-8.208v-7.393c0-2.645,1.257-3.97,3.786-3.97H480q3.967,0,3.964,3.97v8.476q0,14.071-7.84,21.738T454.206,184.862Z" transform="translate(-404.784 -58.06)" fill="#FFFFFF"/><path d="M423.182,155.279v-3.607c0-2.529,1.257-3.786,3.786-3.786H442.3c2.524,0,3.781,1.257,3.781,3.786v1.441q0,6.854,2.713,9.381,2.7,2.524,9.917,2.529h8.476q7.036,0,9.827-2.708,2.808-2.705,2.8-10.1v-2.166a9.041,9.041,0,0,0-4.238-8.024,22.338,22.338,0,0,0-10.554-3.339,114.8,114.8,0,0,1-13.613-2.072,88.654,88.654,0,0,1-13.619-3.97q-6.318-2.437-10.548-9.559T423,104.774v-6.31q0-14.079,7.935-21.827t22.006-7.756h18.036q14.252,0,22.19,7.756T501.1,98.464v3.423c0,2.524-1.267,3.791-3.786,3.791H481.98q-3.793,0-3.791-3.791V100.8q0-7.036-2.7-9.56t-9.917-2.524h-7.041q-7.391,0-10.012,2.8t-2.608,10.911v3.428q0,8.479,14.786,9.738a91.453,91.453,0,0,1,27.238,6.136,23.081,23.081,0,0,1,10.553,9.649q4.236,6.949,4.233,17.762v6.136q0,14.071-7.935,21.822t-22,7.761H453.123q-14.071,0-22.006-7.761T423.182,155.279Z" transform="translate(-327.224 -58.06)" fill="#FFFFFF"/><path d="M449.212,155.279v-3.607c0-2.529,1.262-3.786,3.791-3.786h15.333c2.519,0,3.781,1.257,3.781,3.786v1.441q0,6.854,2.713,9.381,2.7,2.524,9.917,2.529h8.476q7.036,0,9.828-2.708t2.8-10.1v-2.166a9.041,9.041,0,0,0-4.238-8.024,22.359,22.359,0,0,0-10.553-3.339,114.8,114.8,0,0,1-13.614-2.072,88.644,88.644,0,0,1-13.619-3.97q-6.318-2.437-10.553-9.559t-4.238-18.309v-6.31q0-14.079,7.935-21.827t22.006-7.756h18.036q14.253,0,22.19,7.756t7.935,21.827v3.423c0,2.524-1.267,3.791-3.786,3.791H508.015q-3.794,0-3.792-3.791V100.8q0-7.036-2.7-9.56T491.6,88.72h-7.041q-7.391,0-10.012,2.8t-2.608,10.911v3.428q0,8.479,14.786,9.738a91.454,91.454,0,0,1,27.238,6.136,23.107,23.107,0,0,1,10.553,9.649q4.236,6.949,4.233,17.762v6.136q0,14.071-7.935,21.822t-22,7.761H479.158q-14.071,0-22.011-7.761T449.212,155.279Z" transform="translate(-216.36 -58.06)" fill="#FFFFFF"/><path d="M513.234,165.436H497.181q-14.252,0-22.011-7.577t-7.751-21.827v-33.19q0-14.245,7.751-21.822t22.011-7.577h16.053q14.064,0,21.911,7.667T543,102.842v33.19q0,14.071-7.85,21.738T513.234,165.436ZM500.6,145.776h9.2q5.765,0,8.208-2.345t2.434-8.119V103.568q0-5.774-2.434-8.119T509.806,93.1h-9.2q-5.773,0-8.119,2.345t-2.34,8.119v31.744q0,5.774,2.34,8.119T500.6,145.776Z" transform="translate(-138.068 -38.633)" fill="#FFFFFF"/><path d="M545.307,149.383v12.446a3.868,3.868,0,0,1-.815,2.792,4.2,4.2,0,0,1-2.976.815H514.641q-14.252,0-22.006-7.577t-7.756-21.827v-33.19q0-14.245,7.756-21.822t22.006-7.577h26.875q3.786,0,3.791,3.791V89.675a3.883,3.883,0,0,1-.815,2.8,4.2,4.2,0,0,1-2.976.81H518.248q-5.592,0-8.029,2.44t-2.435,8.2v31.024q0,5.781,2.435,8.208t8.029,2.44h23.268C544.04,145.6,545.307,146.854,545.307,149.383Z" transform="translate(-63.719 -38.633)" fill="#FFFFFF"/><path d="M518.439,193.626H503.106c-2.519,0-3.786-1.267-3.786-3.791V70.609c0-2.524,1.267-3.786,3.786-3.786h15.333q3.794,0,3.791,3.786v40.762h.72q3.967-9.741,17.678-9.738H546.4q28.308,0,28.316,29.4v58.8q0,3.786-3.97,3.791H555.6q-3.794,0-3.791-3.791v-57.72q0-5.766-2.435-8.2t-8.2-2.44h-6.494q-12.446,0-12.446,13.714v54.649Q522.23,193.621,518.439,193.626Z" transform="translate(-2.225 -66.823)" fill="#FFFFFF"/></g></g><g transform="translate(183.914 275.109)"><path d="M421.511,147.745h-3.339a.922.922,0,0,1-1.041-1.041V105.421c0-.442-.247-.668-.741-.668h-10.1c-.747,0-1.115-.342-1.115-1.036v-2.676c0-.689.368-1.036,1.115-1.036h27.1c.747,0,1.115.347,1.115,1.036v2.676c0,.694-.368,1.036-1.115,1.036h-10.1c-.494,0-.741.226-.741.668V146.7A.922.922,0,0,1,421.511,147.745Z" transform="translate(-405.179 -95.546)" fill="#FFFFFF"/><path d="M416.332,151.356h-3.339a.919.919,0,0,1-1.036-1.041V100.2a.917.917,0,0,1,1.036-1.041h3.339a.92.92,0,0,1,1.041,1.041v17.226h.295q1.862-3.936,7.577-3.933H429.4q5.048,0,7.872,2.892t2.824,8.092v25.839a.922.922,0,0,1-1.041,1.041h-3.339a.92.92,0,0,1-1.041-1.041V124.7q0-6.452-6.236-6.457h-4.159a6.957,6.957,0,0,0-5.121,1.783,6.841,6.841,0,0,0-1.783,5.053v25.24A.922.922,0,0,1,416.332,151.356Z" transform="translate(-376.316 -99.157)" fill="#FFFFFF"/><path d="M419.256,107.191v-6.978c0-.7.321-1.041.968-1.041h3.413a.918.918,0,0,1,1.041,1.041v6.978a.916.916,0,0,1-1.041,1.036h-3.413C419.577,108.227,419.256,107.885,419.256,107.191Zm0,43.06V114.463c0-.689.321-1.036.968-1.036h3.413a.919.919,0,0,1,1.041,1.036v35.788a.922.922,0,0,1-1.041,1.041H420.3A.922.922,0,0,1,419.256,150.251Z" transform="translate(-345.235 -99.093)" fill="#FFFFFF"/><path d="M426.686,139.748h-3.339a.922.922,0,0,1-1.041-1.041V102.919a.919.919,0,0,1,1.041-1.036h3.339a.915.915,0,0,1,1.036,1.036v2.9h.3c1.236-2.624,3.77-3.933,7.572-3.933h4.164c3.36,0,5.989.962,7.861,2.892,1.888,1.93,2.819,4.633,2.819,8.093v25.839a.916.916,0,0,1-1.036,1.041h-3.334a.928.928,0,0,1-1.052-1.041V113.088q0-6.452-6.226-6.457h-4.154a6.944,6.944,0,0,0-5.127,1.783,6.863,6.863,0,0,0-1.788,5.053v25.24A.919.919,0,0,1,426.686,139.748Z" transform="translate(-332.248 -87.549)" fill="#FFFFFF"/><path d="M433.915,151.356h-3.344a.919.919,0,0,1-1.036-1.041V100.2a.916.916,0,0,1,1.036-1.041h3.344a.922.922,0,0,1,1.041,1.041v50.117A.925.925,0,0,1,433.915,151.356Zm17.073-37.865h3.718a.8.8,0,0,1,.773.331c.126.226.068.51-.185.852l-10.916,16.932v.3l12.031,18.262a.79.79,0,0,1,.074.852.907.907,0,0,1-.815.337h-3.492a2.3,2.3,0,0,1-2.077-1.041l-11.437-17.668a1.491,1.491,0,0,1,0-1.562l10.543-16.632A1.77,1.77,0,0,1,450.988,113.491Z" transform="translate(-301.465 -99.157)" fill="#FFFFFF"/><path d="M441.366,107.956v8.986c0,.689-.321,1.041-.968,1.041h-3.786c-.647,0-.963-.352-.963-1.041v-8.986a.849.849,0,0,1,.963-.962H440.4A.852.852,0,0,1,441.366,107.956Z" transform="translate(-275.425 -65.785)" fill="#FFFFFF"/><path d="M462.013,147.745h-8.908a10.947,10.947,0,0,1-8.055-2.9q-2.934-2.887-2.934-8.087V110.99c0-3.46.978-6.163,2.934-8.087a10.945,10.945,0,0,1,8.055-2.9h8.908a10.958,10.958,0,0,1,8.061,2.9c1.951,1.924,2.929,4.627,2.929,8.087v3.639a.919.919,0,0,1-1.036,1.041h-3.344a.92.92,0,0,1-1.041-1.041v-3.413q0-6.46-6.236-6.462H453.7q-6.168,0-6.163,6.462v25.313q0,6.468,6.163,6.462h7.646q6.239,0,6.236-6.462v-3.418a.921.921,0,0,1,1.041-1.036h3.344A.919.919,0,0,1,473,133.111v3.644q0,5.2-2.929,8.087A10.961,10.961,0,0,1,462.013,147.745Z" transform="translate(-247.891 -95.546)" fill="#FFFFFF"/><path d="M454.135,139.748h-3.344a.919.919,0,0,1-1.036-1.041V102.919a.915.915,0,0,1,1.036-1.036h3.344a.917.917,0,0,1,1.036,1.036v2.971h.3a6.459,6.459,0,0,1,2.819-2.824,9.746,9.746,0,0,1,4.9-1.183h2.892c.647,0,.973.347.973,1.036v2.75a1.173,1.173,0,0,1-.221.778.785.785,0,0,1-.752.184h-4a6.5,6.5,0,0,0-5.127,2.009,7.969,7.969,0,0,0-1.783,5.495v24.572A.921.921,0,0,1,454.135,139.748Z" transform="translate(-215.362 -87.549)" fill="#FFFFFF"/><path d="M480.9,139.748H465.158a10.944,10.944,0,0,1-8.05-2.9q-2.934-2.887-2.934-8.087v-15.89q0-5.19,2.934-8.093a10.96,10.96,0,0,1,8.05-2.892h6.236c3.423,0,6.089.962,8.024,2.892s2.892,4.633,2.892,8.093V122.3c0,.741-.342,1.115-1.036,1.115H460.263c-.5,0-.741.221-.741.668v4.533q0,6.46,6.237,6.457H480.9a.916.916,0,0,1,1.041,1.036v2.676C481.942,139.422,481.6,139.748,480.9,139.748Zm-20.639-20.271H476.3a.657.657,0,0,0,.741-.747v-5.716q0-6.381-6.242-6.384h-5.042q-6.239,0-6.237,6.384v5.716A.655.655,0,0,0,460.263,119.477Z" transform="translate(-196.546 -87.549)" fill="#FFFFFF"/><path d="M475.969,139.748H472.1a10.943,10.943,0,0,1-8.05-2.9q-2.934-2.887-2.934-8.087v-15.89q0-5.19,2.934-8.093a10.959,10.959,0,0,1,8.05-2.892h16.116a.915.915,0,0,1,1.036,1.036v35.788a.919.919,0,0,1-1.036,1.041h-3.344a.924.924,0,0,1-1.041-1.041v-2.9h-.295Q481.688,139.745,475.969,139.748Zm7.866-11.584V107.3c0-.447-.242-.673-.741-.673H472.7q-6.168,0-6.163,6.457v15.443q0,6.468,6.163,6.462h4.228a6.931,6.931,0,0,0,5.127-1.783A6.839,6.839,0,0,0,483.836,128.164Z" transform="translate(-166.968 -87.549)" fill="#FFFFFF"/><path d="M472.836,113.189H468.75c-.694,0-1.036-.321-1.036-.962v-2.75a.915.915,0,0,1,1.036-1.036h4.086c.495,0,.742-.221.742-.668v-6.389a.92.92,0,0,1,1.041-1.041h3.344q.962,0,.962,1.041v6.389c0,.447.268.668.815.668h7.872c.747,0,1.115.347,1.115,1.036v2.75c0,.641-.368.962-1.115.962H479.74c-.547,0-.815.226-.815.673v21.38q0,6.31,6.536,6.31h2.9c.741,0,1.115.342,1.115,1.036v2.75c0,.641-.373.968-1.115.968h-3.565a11.451,11.451,0,0,1-8.166-2.861,10.419,10.419,0,0,1-3.05-7.982v-21.6C473.577,113.415,473.33,113.189,472.836,113.189Z" transform="translate(-138.889 -94.107)" fill="#FFFFFF"/><path d="M499.935,139.748H484.192a10.944,10.944,0,0,1-8.051-2.9q-2.934-2.887-2.934-8.087v-15.89q0-5.19,2.934-8.093a10.96,10.96,0,0,1,8.051-2.892h6.236q5.127,0,8.024,2.892t2.892,8.093V122.3c0,.741-.347,1.115-1.042,1.115H479.3c-.5,0-.741.221-.741.668v4.533q0,6.46,6.236,6.457h15.144a.913.913,0,0,1,1.035,1.036v2.676C500.97,139.422,500.629,139.748,499.935,139.748ZM479.3,119.477h16.032a.655.655,0,0,0,.742-.747v-5.716q0-6.381-6.237-6.384h-5.043q-6.238,0-6.236,6.384v5.716A.655.655,0,0,0,479.3,119.477Z" transform="translate(-115.498 -87.549)" fill="#FFFFFF"/><path d="M485.875,107.956v8.986c0,.689-.326,1.041-.972,1.041h-3.786c-.647,0-.963-.352-.963-1.041v-8.986a.849.849,0,0,1,.963-.962H484.9A.856.856,0,0,1,485.875,107.956Z" transform="translate(-85.916 -65.785)" fill="#FFFFFF"/><path d="M506.517,147.745h-8.9a10.952,10.952,0,0,1-8.061-2.9q-2.926-2.887-2.934-8.087V110.99c0-3.46.983-6.163,2.934-8.087s4.638-2.9,8.061-2.9h8.9q5.135,0,8.061,2.9c1.956,1.924,2.929,4.627,2.929,8.087v3.639a.918.918,0,0,1-1.036,1.041h-3.344a.917.917,0,0,1-1.036-1.041v-3.413q0-6.46-6.236-6.462H498.2q-6.168,0-6.163,6.462v25.313q0,6.468,6.163,6.462h7.651q6.239,0,6.236-6.462v-3.418a.917.917,0,0,1,1.036-1.036h3.344a.919.919,0,0,1,1.036,1.036v3.644q0,5.2-2.929,8.087A10.953,10.953,0,0,1,506.517,147.745Z" transform="translate(-58.382 -95.546)" fill="#FFFFFF"/><path d="M511.486,139.748H505.1a10.936,10.936,0,0,1-8.051-2.9q-2.934-2.887-2.934-8.087v-15.89q0-5.19,2.934-8.093a10.952,10.952,0,0,1,8.051-2.892h6.383a10.964,10.964,0,0,1,8.056,2.892q2.934,2.895,2.934,8.093v15.89q0,5.2-2.934,8.087A10.948,10.948,0,0,1,511.486,139.748Zm-5.784-4.753h5.19q6.238,0,6.236-6.384v-15.6q0-6.381-6.236-6.384H505.7q-6.239,0-6.236,6.384v15.6Q499.465,134.992,505.7,134.994Z" transform="translate(-26.453 -87.549)" fill="#FFFFFF"/><path d="M516.248,151.356h-4.385q-5.048,0-7.866-2.9-2.824-2.887-2.819-8.087V124.476q0-5.19,2.819-8.092t7.866-2.892h4.385q5.79,0,7.646,3.933h.294V100.2c0-.694.326-1.041.973-1.041h3.413q.962,0,.962,1.041v50.117c0,.689-.32,1.041-.962,1.041h-3.413c-.647,0-.973-.352-.973-1.041v-2.9h-.294Q522.04,151.353,516.248,151.356Zm7.94-11.584v-14.7a6.859,6.859,0,0,0-1.777-5.053,6.955,6.955,0,0,0-5.127-1.783h-4.522q-6.168,0-6.163,6.457V140.14q0,6.468,6.163,6.462h4.522a6.933,6.933,0,0,0,5.127-1.783A6.837,6.837,0,0,0,524.188,139.772Z" transform="translate(3.61 -99.157)" fill="#FFFFFF"/><path d="M535.107,139.748H519.363a10.944,10.944,0,0,1-8.05-2.9q-2.934-2.887-2.934-8.087v-15.89q0-5.19,2.934-8.093a10.96,10.96,0,0,1,8.05-2.892H525.6q5.127,0,8.024,2.892t2.892,8.093V122.3c0,.741-.347,1.115-1.041,1.115H514.468c-.5,0-.741.221-.741.668v4.533q0,6.46,6.236,6.457h15.143a.913.913,0,0,1,1.036,1.036v2.676C536.142,139.422,535.8,139.748,535.107,139.748Zm-20.639-20.271H530.5a.655.655,0,0,0,.741-.747v-5.716q0-6.381-6.236-6.384h-5.042q-6.239,0-6.236,6.384v5.716A.655.655,0,0,0,514.468,119.477Z" transform="translate(34.274 -87.549)" fill="#FFFFFF"/><path d="M521.047,107.956v8.986c0,.689-.326,1.041-.973,1.041h-3.781c-.652,0-.967-.352-.967-1.041v-8.986a.85.85,0,0,1,.967-.962h3.781A.856.856,0,0,1,521.047,107.956Z" transform="translate(63.856 -65.785)" fill="#FFFFFF"/></g></g></svg>